<svg id="cryptomines_Image" data-name="cryptomines Image" xmlns="http://www.w3.org/2000/svg" xmlns:xlink="http://www.w3.org/1999/xlink" viewBox="0 0 1912.51 128.38"><defs><style>.cls-1,.cls-10,.cls-11,.cls-2,.cls-3,.cls-4,.cls-5,.cls-6,.cls-7,.cls-8,.cls-9{stroke:#393939;stroke-miterlimit:10;stroke-width:2px;}.cls-1{fill:url(#linear-gradient);}.cls-2{fill:url(#linear-gradient-2);}.cls-3{fill:url(#linear-gradient-3);}.cls-4{fill:url(#linear-gradient-4);}.cls-5{fill:url(#linear-gradient-5);}.cls-6{fill:url(#linear-gradient-6);}.cls-7{fill:url(#linear-gradient-7);}.cls-8{fill:url(#linear-gradient-8);}.cls-9{fill:url(#linear-gradient-9);}.cls-10{fill:url(#linear-gradient-10);}.cls-11{fill:url(#linear-gradient-11);}</style><linearGradient id="linear-gradient" x1="93.07" y1="35.12" x2="94.67" y2="217.52" gradientUnits="userSpaceOnUse"><stop offset="0" stop-color="#eaeaea"/><stop offset="0.06" stop-color="#ddd"/><stop offset="0.25" stop-color="#bbb"/><stop offset="0.41" stop-color="#a7a7a7"/><stop offset="0.51" stop-color="#9f9f9f"/></linearGradient><linearGradient id="linear-gradient-2" x1="278.15" y1="33.5" x2="279.75" y2="215.9" xlink:href="#linear-gradient"/><linearGradient id="linear-gradient-3" x1="464.33" y1="31.87" x2="465.93" y2="214.27" xlink:href="#linear-gradient"/><linearGradient id="linear-gradient-4" x1="649.13" y1="30.25" x2="650.73" y2="212.65" xlink:href="#linear-gradient"/><linearGradient id="linear-gradient-5" x1="835.07" y1="28.62" x2="836.67" y2="211.02" xlink:href="#linear-gradient"/><linearGradient id="linear-gradient-6" x1="1020.01" y1="26.99" x2="1021.61" y2="209.39" xlink:href="#linear-gradient"/><linearGradient id="linear-gradient-7" x1="1213.4" y1="25.3" x2="1215" y2="207.7" xlink:href="#linear-gradient"/><linearGradient id="linear-gradient-8" x1="1340.18" y1="24.18" x2="1341.78" y2="206.58" xlink:href="#linear-gradient"/><linearGradient id="linear-gradient-9" x1="1458.95" y1="23.14" x2="1460.55" y2="205.54" xlink:href="#linear-gradient"/><linearGradient id="linear-gradient-10" x1="1644.32" y1="21.52" x2="1645.92" y2="203.92" xlink:href="#linear-gradient"/><linearGradient id="linear-gradient-11" x1="1829.69" y1="19.89" x2="1831.29" y2="202.29" xlink:href="#linear-gradient"/></defs><title>logo_cryptomines_Svg</title><path class="cls-1" d="M45.82,14H179.51c.39.08.58.28.58.59V43.45a.51.51,0,0,1-.58.58H67.5Q52.3,44,47.24,60.64a40.44,40.44,0,0,0-.36,4.59v24.5q0,13.9,13.9,19.55a17.36,17.36,0,0,0,6.72,1.18h112c.39,0,.58.16.58.47v28.86a.52.52,0,0,1-.58.59H46.65q-20.61,0-34.27-16.73a30.17,30.17,0,0,1-5.89-17.43V47.33Q6.49,31.91,24,20.24,35.46,14,45.82,14Z" transform="translate(-5.49 -13)"/><path class="cls-2" d="M192.46,14H325.55q18.13,0,31.69,13.9,8.24,9.54,8.24,20.61V71.36q0,17.79-19.55,29.44L340.86,103l24.62,37.1-.59.24H317.07q-1.76-2-23.44-34.75H232.27v34.16a.52.52,0,0,1-.59.59H192.46a.52.52,0,0,1-.59-.59V14.59C192,14.2,192.15,14,192.46,14Zm39.81,30V75.6H309q12.24,0,15.54-10.72a25.31,25.31,0,0,0,.47-4.83q0-11.41-9.54-15.19a22.11,22.11,0,0,0-6-.83Z" transform="translate(-5.49 -13)"/><path class="cls-3" d="M377.85,14h39.81L464.3,64.29Q509.41,15.06,510.7,14h39.81c.4.08.59.28.59.59Q545.68,20,484.44,86.91v52.88a.52.52,0,0,1-.59.59H444.51a.52.52,0,0,1-.59-.59V86.91L377.26,14.35Z" transform="translate(-5.49 -13)"/><path class="cls-4" d="M563.47,14H696.33Q717,14,730.84,31q5.64,9,5.65,17V71.36q0,17.07-18.38,28.86a44.83,44.83,0,0,1-20.72,5.41H603.28v34.16a.52.52,0,0,1-.59.59H563.47a.52.52,0,0,1-.59-.59V14.59C563,14.2,563.16,14,563.47,14Zm39.81,30V75.6H680q12.25,0,15.55-10.72a26.15,26.15,0,0,0,.47-4.83q0-11.41-9.54-15.19a22.11,22.11,0,0,0-6-.83Z" transform="translate(-5.49 -13)"/><path class="cls-5" d="M748.86,14H921.29c.39.08.58.28.58.59V43.45a.51.51,0,0,1-.58.58H855.45v95.76a.52.52,0,0,1-.59.59H815.52a.52.52,0,0,1-.59-.59V44H748.86a.51.51,0,0,1-.59-.58V14.59C748.34,14.2,748.54,14,748.86,14Z" transform="translate(-5.49 -13)"/><path class="cls-6" d="M972.64,14h93.87q21.2,0,34.51,16.37a31.08,31.08,0,0,1,6.24,18.38v57.12q0,19.2-21.55,30.27a44.91,44.91,0,0,1-19.2,4.24H973.82q-20.62,0-34.28-16.73a29.8,29.8,0,0,1-5.89-17.43V48.51q0-20.14,23.79-31.33Q966.88,14,972.64,14Zm1.41,50.65V89.5q0,15.31,15.9,20.37a18.09,18.09,0,0,0,4.71.59h51.83q13.89,0,19.43-14.72a15.92,15.92,0,0,0,.82-5.65v-24q0-16.14-15-21.55a71.1,71.1,0,0,0-7.66-.48H994.66q-14.25,0-19.78,14.61A22.13,22.13,0,0,0,974.05,64.65Z" transform="translate(-5.49 -13)"/><path class="cls-7" d="M1119.63,14H1160L1214,76.54Q1267.44,14,1267.68,14h40.51a.56.56,0,0,1,.48.59v125.2c0,.39-.16.59-.48.59h-39.33a.52.52,0,0,1-.59-.59V65.23l-54,62.66h-.59q-.46-.11-54.29-62.66v74.56a.52.52,0,0,1-.59.59h-39.22a.52.52,0,0,1-.59-.59V14.59C1119.12,14.2,1119.31,14,1119.63,14Z" transform="translate(-5.49 -13)"/><path class="cls-8" d="M1321,14h39.22c.4.08.59.28.59.59v125.2a.52.52,0,0,1-.59.59H1321a.52.52,0,0,1-.59-.59V14.59C1320.52,14.2,1320.72,14,1321,14Z" transform="translate(-5.49 -13)"/><path class="cls-9" d="M1373.21,14h39.57q36.17,33.11,92.7,85.39h.23V14.59c.08-.39.28-.59.59-.59h39.34c.39.08.59.28.59.59v125.2a.52.52,0,0,1-.59.59h-40.16l-92.46-85v84.45a.52.52,0,0,1-.59.59h-39.22a.52.52,0,0,1-.59-.59V14.59C1372.7,14.2,1372.89,14,1373.21,14Z" transform="translate(-5.49 -13)"/><path class="cls-10" d="M1558.59,14H1731c.4.08.59.28.59.59V43.45a.51.51,0,0,1-.59.58H1598.41V63.47h98.11c.39.08.58.27.58.59V90.32a.51.51,0,0,1-.58.59h-98.11v19.55H1731c.4,0,.59.16.59.47v28.86a.52.52,0,0,1-.59.59H1558.59a.52.52,0,0,1-.58-.59V14.59C1558.08,14.2,1558.28,14,1558.59,14Z" transform="translate(-5.49 -13)"/><path class="cls-11" d="M1782.73,14h133.68c.39.08.59.28.59.59V43.45a.52.52,0,0,1-.59.58H1794q-10.24,1.3-10.25,9.9,0,5.77,6.24,8.71a11.13,11.13,0,0,0,4.48.83h83.15q17.55,0,31.1,13.9,8.23,9.54,8.24,20.37v8.72q0,18.5-21.55,29.91a44.6,44.6,0,0,1-18.38,4H1744a.52.52,0,0,1-.59-.59V110.93a.56.56,0,0,1,.59-.47h121.79q7.41,0,10.24-6.59c.32-1.89.47-3,.47-3.3q0-5.89-6.12-8.83a11.44,11.44,0,0,0-4.59-.83h-82q-20.26,0-33.92-15.78-6.48-8.59-6.48-18.14V48.27q0-17.31,19.2-28.62Q1773.54,14.6,1782.73,14Z" transform="translate(-5.49 -13)"/></svg>